/* XPM */
static char *Pixmap[] = {
"16 16 2 1",
"0 c #0000ff",
"1 c None",
"1111111111111111",
"1111111111111111",
"1111110111111111",
"1111100011111111",
"1111000001111111",
"1110000000111111",
"1100000000011111",
"1000000000001111",
"0000000000000111",
"1000000000001111",
"1100000000011111",
"1110000000111111",
"1111000001111111",
"1111100011111111",
"1111110111111111",
"1111111111111111"
};
