/* XPM */
static char *Pixmap[] = {
"16 16 4 1",
"0 c #000000",
"1 c #ff0000",
"2 c #ffff00",
"3 c None",
"3333333333333333",
"3333333333333333",
"3333333333333333",
"3333333333333333",
"3333330003333333",
"3333301110333333",
"3333012221033333",
"3330111121103333",
"3330111211103333",
"3330111111103333",
"3333011211033333",
"3333301110333333",
"3333330003333333",
"3333333333333333",
"3333333333333333",
"3333333333333333"
};
