/* XPM */
static char *Pixmap[] = {
"16 16 3 1",
"0 c #000000",
"1 c #ff0000",
"2 c None",
"2222222222222222",
"2222222222222222",
"2222222222222222",
"2222222222222222",
"2222220002222222",
"2222201110222222",
"2222011111022222",
"2220111111102222",
"2220111111102222",
"2220111111102222",
"2222011111022222",
"2222201110222222",
"2222220002222222",
"2222222222222222",
"2222222222222222",
"2222222222222222"
};
