/* XPM */
static char *Pixmap[] = {
"16 16 3 1",
"0 c #000000",
"1 c #00ff00",
"2 c None",
"2222222222222222",
"2222222002222222",
"2222222010222222",
"2222222011022222",
"2222222011102222",
"2222222011110222",
"2222222011111022",
"2222222011111102",
"2222222011111110",
"2222222011111102",
"2222222011111022",
"2222222011110222",
"2222222011102222",
"2222222011022222",
"2222222010222222",
"2222222002222222"
};
