/* XPM */
static char *Pixmap[] = {
"16 16 3 1",
"0 c #000000",
"1 c #ffff00",
"2 c None",
"2222222222222222",
"2222222222222222",
"2222222222222222",
"2222222220022222",
"2222222220102222",
"2222222220110222",
"2220000000111022",
"2220111111111102",
"2220111111111110",
"2220111111111102",
"2220000000111022",
"2222222220110222",
"2222222220102222",
"2222222220022222",
"2222222222222222",
"2222222222222222"
};
