/* XPM */
static char *Pixmap[] = {
"16 16 2 1",
"0 c #000000",
"1 c None",
"1111111111111111",
"1111111111111111",
"1111111111111111",
"1111111110011111",
"1111111110101111",
"1111111110110111",
"1110000000111011",
"1110111111111101",
"1110111111111110",
"1110111111111101",
"1110000000111011",
"1111111110110111",
"1111111110101111",
"1111111110011111",
"1111111111111111",
"1111111111111111"
};
